<?xml version="1.0" standalone="no"?>
<!DOCTYPE svg PUBLIC "-//W3C//DTD SVG 20010904//EN"
 "http://www.w3.org/TR/2001/REC-SVG-20010904/DTD/svg10.dtd">
<svg version="1.0" xmlns="http://www.w3.org/2000/svg"
 width="558.000000pt" height="459.000000pt" viewBox="0 0 558.000000 459.000000"
 preserveAspectRatio="xMidYMid meet">
<metadata>
Created by potrace 1.16, written by Peter Selinger 2001-2019
</metadata>
<g transform="translate(0.000000,459.000000) scale(0.100000,-0.100000)"
fill="#000000" stroke="none">
<path d="M2070 4279 c-120 -7 -282 -47 -349 -86 -86 -50 -179 -154 -305 -342
l-56 -84 0 -137 c0 -141 16 -261 50 -385 18 -65 19 -55 5 40 -4 25 -2 23 11
-10 19 -49 44 -166 44 -205 0 -16 9 -50 20 -76 11 -26 19 -49 16 -51 -10 -10
-47 20 -81 64 -29 38 -35 54 -35 95 0 27 5 58 10 68 9 16 1 29 -45 77 -30 32
-72 81 -93 108 -20 28 -54 66 -76 83 l-39 33 -22 -21 c-22 -21 -24 -70 -3 -70
6 0 7 -7 4 -16 -3 -8 -2 -13 3 -9 17 10 40 -89 41 -175 0 -47 5 -86 10 -88 6
-2 10 -13 11 -25 0 -38 34 -159 42 -151 4 4 7 -6 8 -22 0 -16 5 -38 10 -49 7
-16 8 -14 4 10 -4 22 -3 26 5 15 5 -8 9 -35 9 -60 -1 -41 -2 -42 -9 -15 -7 28
-8 29 -15 8 -12 -38 -25 -15 -26 45 -1 50 -3 52 -8 22 l-7 -35 -11 45 c-8 31
-11 37 -12 19 -1 -14 15 -81 34 -150 19 -68 35 -141 35 -161 0 -21 12 -62 26
-92 21 -46 34 -59 77 -82 40 -20 52 -23 56 -13 2 8 17 26 32 42 l28 27 -35 15
c-18 7 -45 25 -59 39 -14 14 -25 22 -25 18 0 -5 5 -13 10 -18 13 -13 51 -87
47 -91 -2 -1 -20 14 -40 35 -31 32 -36 42 -29 62 6 17 1 36 -21 78 -26 47 -30
67 -33 146 -3 83 -2 88 10 61 7 -16 23 -39 35 -49 17 -15 21 -31 21 -75 l0
-56 -27 40 c-15 21 -28 34 -30 28 -8 -22 56 -140 92 -172 40 -34 103 -55 134
-43 22 8 22 8 -8 50 -20 27 -36 40 -46 36 -12 -5 -21 8 -13 19 1 1 -10 22 -24
47 -26 44 -66 186 -56 196 3 3 9 -12 13 -32 3 -21 20 -71 37 -113 17 -42 31
-81 32 -88 1 -7 5 -15 8 -19 12 -11 0 41 -26 115 -14 40 -28 92 -31 115 -2 22
-2 32 1 21 28 -111 80 -248 102 -272 14 -15 27 -34 28 -41 3 -20 11 -25 40
-28 34 -4 83 -27 110 -52 20 -19 21 -19 121 29 56 26 104 53 109 60 5 8 3 9
-5 4 -10 -6 -11 -3 -2 14 13 24 23 28 15 6 -10 -25 13 -17 34 13 34 48 53 91
63 149 14 75 2 97 -65 119 -73 24 -128 53 -148 78 -23 28 -23 39 1 26 40 -21
45 -8 6 15 -22 14 -39 28 -38 32 1 5 -10 22 -25 38 -15 17 -7 11 16 -12 24
-24 53 -43 65 -44 12 0 16 -3 9 -6 -8 -3 -5 -11 12 -24 17 -14 40 -19 80 -19
58 0 151 -34 189 -68 50 -44 72 -136 41 -166 -8 -9 -11 -16 -6 -16 8 0 26 13
71 52 12 10 13 7 9 -15 -3 -14 -1 -24 3 -21 12 7 11 61 -1 84 -16 30 16 33 40
3 26 -34 34 -65 27 -113 -5 -37 -4 -39 15 -29 10 6 22 18 25 26 6 14 8 14 15
-3 6 -13 7 -9 3 14 -3 19 -19 54 -35 79 -17 25 -29 47 -27 50 3 2 22 -11 43
-29 l39 -33 -30 37 c-16 20 -38 37 -49 37 -10 1 -35 14 -55 30 -60 48 -143 89
-206 104 -55 13 -168 69 -205 102 -8 7 -26 16 -40 20 -54 17 -164 107 -191
156 -5 10 22 -14 60 -53 47 -48 74 -69 85 -65 9 4 15 1 13 -5 -1 -6 4 -13 12
-16 8 -2 11 0 7 6 -3 5 0 10 7 9 49 -1 51 3 14 29 -21 14 -48 27 -60 29 -49 9
-125 136 -171 286 -14 48 -26 100 -25 115 1 29 1 29 8 4 l7 -25 11 30 10 30
13 -43 c11 -35 11 -47 0 -67 -16 -30 -9 -70 31 -162 22 -50 35 -70 45 -66 22
8 44 -5 38 -22 -6 -14 -9 -14 -28 2 -16 14 -15 11 5 -17 15 -19 29 -34 33 -32
3 1 23 -5 43 -13 l37 -16 -22 24 c-25 27 -28 43 -8 50 8 3 18 -5 25 -19 12
-28 67 -64 96 -64 18 0 18 2 -4 13 -13 6 -23 15 -22 20 0 4 1 14 1 22 0 8 9
15 20 15 11 0 20 4 20 9 0 15 38 1 45 -16 3 -9 -2 -24 -11 -34 -10 -11 -13
-19 -8 -19 5 0 2 -5 -6 -10 -9 -6 -10 -10 -3 -10 6 0 18 9 26 20 8 11 16 18
18 16 10 -10 9 95 -1 114 -10 19 -9 20 32 15 l43 -5 -27 24 c-15 13 -25 26
-22 28 5 6 -103 1 -145 -7 -48 -9 -101 -37 -94 -49 4 -6 2 -7 -3 -3 -5 5 -9
12 -9 15 0 4 -17 41 -37 82 -54 111 -58 135 -14 77 21 -26 41 -45 45 -42 5 2
17 -5 27 -18 l19 -22 -25 20 -25 20 24 -28 c24 -26 38 -36 27 -19 -3 5 7 9 22
10 33 1 87 20 59 21 -42 2 -142 121 -176 212 -30 77 -26 90 11 49 18 -19 35
-35 38 -35 3 0 15 -12 28 -27 13 -15 50 -44 83 -65 38 -23 55 -39 48 -44 -7
-4 16 -6 49 -6 68 2 86 17 33 28 -18 4 -45 18 -59 32 -24 24 -21 24 47 -9 80
-38 101 -43 80 -17 -13 15 -12 15 7 5 25 -13 59 -6 99 22 16 11 36 19 44 18 8
-2 -3 20 -24 50 l-38 53 44 -36 c57 -46 75 -57 64 -38 -5 8 -19 32 -32 54
l-24 40 35 -40 c39 -43 45 -41 20 7 l-16 31 31 -22 c30 -22 31 -23 15 -53 -8
-16 -13 -32 -10 -35 3 -3 10 7 16 22 9 23 13 25 26 14 14 -12 16 -9 13 21 -2
19 -6 37 -9 40 -11 9 -50 68 -50 74 0 8 50 -49 73 -84 9 -13 17 -19 17 -13 0
7 6 10 14 7 8 -3 17 -1 20 5 4 6 14 7 23 4 14 -5 15 -1 10 32 -5 33 -4 37 8
24 7 -8 25 -35 38 -61 14 -26 27 -45 29 -42 3 2 11 -8 18 -22 12 -21 12 -27 0
-34 -15 -9 -42 -2 -35 10 8 13 -72 -6 -106 -26 -68 -39 -88 -129 -41 -182 31
-36 67 -36 104 -1 18 17 25 26 15 19 -16 -12 -17 -10 -11 27 4 28 1 49 -10 71
-15 29 -15 31 4 37 28 9 40 -2 41 -38 l1 -32 9 31 c10 35 39 66 39 43 0 -12 2
-12 9 -1 5 8 8 -7 8 -40 0 -29 10 -84 22 -122 11 -37 21 -89 21 -115 0 -40 9
-61 57 -139 32 -51 63 -92 70 -92 21 0 15 14 -18 46 -17 16 -35 38 -41 49 -6
11 12 -4 38 -33 47 -51 50 -53 78 -42 16 6 35 9 43 6 17 -7 16 2 -2 34 -24 42
-17 43 25 4 29 -27 37 -40 29 -50 -7 -8 -6 -14 2 -20 8 -4 9 -3 5 4 -10 17 9
15 23 -1 6 -8 7 -18 3 -22 -4 -5 -2 -5 5 -2 6 4 13 2 15 -5 3 -8 12 -4 26 10
l22 22 -36 42 -37 43 42 -43 c35 -35 45 -41 61 -32 26 14 25 34 -5 99 -14 30
-23 56 -21 58 7 8 86 -97 92 -123 4 -14 13 -24 24 -24 27 0 35 71 16 135 l-15
50 19 -25 c29 -37 41 -82 37 -134 -2 -26 0 -49 3 -51 4 -3 8 33 9 78 1 62 -2
87 -14 102 -16 19 -16 19 -5 -5 10 -23 10 -24 -4 -6 -9 10 -13 23 -10 27 7 13
-15 51 -26 44 -6 -4 -7 3 -2 15 4 12 11 21 15 21 4 -1 12 -1 18 -1 5 0 7 -5 3
-12 -4 -7 -3 -8 4 -4 13 8 47 -8 79 -36 13 -12 27 -17 35 -12 7 4 10 4 6 -1
-4 -4 7 -27 25 -50 18 -24 38 -51 45 -61 11 -17 12 -16 8 11 -4 27 -3 28 9 11
13 -17 14 -17 25 4 9 17 7 27 -10 54 -29 48 -49 63 -60 47 -5 -9 -9 -10 -14
-2 -4 6 -11 9 -15 6 -5 -2 -19 7 -31 20 -28 30 -16 32 24 6 17 -11 34 -17 39
-14 17 10 77 -8 106 -33 27 -22 29 -23 24 -4 -9 34 -50 58 -111 65 -31 3 -91
15 -133 27 -74 20 -77 23 -88 58 -19 64 -52 131 -61 125 -5 -3 -12 0 -16 6 -4
8 -3 9 4 5 22 -13 12 5 -32 63 -43 56 -76 89 -76 77 0 -3 16 -27 37 -53 41
-54 99 -172 109 -220 6 -29 4 -33 -16 -33 -12 0 -41 16 -63 36 -42 35 -42 35
-49 12 -7 -23 -7 -23 -6 2 1 14 -2 32 -5 40 -4 8 -13 45 -22 83 -16 75 -61
171 -75 162 -5 -3 -12 0 -16 6 -4 8 -3 9 4 5 19 -12 14 6 -10 31 l-22 23 29
30 c15 16 32 27 36 24 14 -8 -9 56 -37 103 -36 62 -94 125 -110 119 -7 -3 -16
0 -20 6 -5 7 -2 8 7 3 26 -15 -5 11 -59 48 -55 39 -68 45 -56 25 4 -7 3 -8 -5
-4 -6 4 -9 11 -6 16 5 9 -123 109 -170 133 -69 34 -169 45 -315 36z m637 -310
c41 -25 83 -109 83 -165 0 -24 -4 -45 -9 -48 -5 -4 -29 12 -52 35 -24 23 -60
53 -81 66 -28 19 -43 39 -58 80 -11 30 -27 68 -35 83 l-15 29 67 -30 c37 -17
82 -39 100 -50z m-1158 -976 c18 -33 48 -76 68 -94 31 -30 34 -31 23 -9 -12
23 -12 24 3 12 9 -8 19 -23 23 -34 3 -10 20 -28 37 -39 20 -13 24 -18 11 -15
-18 6 -20 3 -16 -25 2 -17 11 -33 18 -36 18 -7 18 -69 0 -76 -20 -8 -26 2 -26
42 0 35 -20 104 -33 117 -3 4 -2 -8 3 -27 6 -19 10 -42 10 -52 0 -15 -3 -16
-22 -5 -13 7 -28 20 -35 28 -11 13 -12 12 -13 -5 -1 -19 -25 32 -71 150 l-20
50 28 -35 c35 -44 85 -90 97 -90 6 0 -4 15 -21 33 -59 62 -130 207 -147 297
-3 19 7 -2 23 -46 15 -45 43 -108 60 -141z"/>
<path d="M5521 3653 l-53 -73 -72 -2 -71 -1 55 -7 55 -6 -55 -5 -55 -5 62 -2
62 -2 -122 -189 -122 -188 -40 27 c-47 32 -81 49 -45 23 104 -75 182 -138 220
-179 l45 -47 -60 44 c-88 66 -205 144 -171 116 16 -14 26 -29 22 -35 -3 -5
-41 -36 -83 -68 -91 -68 -109 -84 -68 -60 l30 17 -30 -25 c-32 -28 -51 -34
-39 -13 4 7 3 9 -2 4 -5 -5 -9 -14 -9 -20 0 -5 -6 -12 -14 -15 -9 -3 -11 0 -6
8 5 9 4 11 -4 6 -6 -4 -9 -11 -6 -16 6 -10 -63 -52 -79 -47 -6 2 -66 -23 -133
-55 -70 -33 -159 -68 -206 -79 l-82 -19 135 6 c74 3 149 7 165 9 18 1 73 29
130 66 130 85 139 88 85 39 -25 -23 -72 -55 -105 -71 -59 -28 -59 -29 -20 -23
22 3 68 12 101 20 34 9 73 16 87 18 14 1 33 8 41 16 10 7 16 8 16 2 0 -6 -6
-13 -12 -16 -7 -2 3 -4 22 -4 44 2 56 8 39 19 -10 6 -6 8 11 7 16 -2 24 2 22
10 -1 8 2 11 8 7 5 -3 31 10 56 30 26 19 49 33 52 31 5 -5 -23 -47 -72 -109
-64 -80 -218 -180 -346 -223 l-55 -18 54 -7 c63 -8 127 8 214 54 65 34 151
123 142 147 -4 8 -3 11 1 7 7 -7 84 138 84 159 0 6 11 20 24 33 l23 22 42 -65
c23 -35 58 -93 76 -128 19 -35 35 -59 35 -54 0 5 -18 42 -40 82 -43 79 -47 89
-27 78 6 -4 3 2 -7 14 -11 12 -21 20 -24 17 -3 -2 -17 12 -32 33 -15 20 -37
45 -48 56 -21 18 -22 18 -59 -12 -21 -16 -72 -46 -113 -67 l-75 -37 88 87 c74
75 85 90 75 103 -7 8 11 -2 40 -22 67 -49 163 -143 198 -195 15 -23 28 -41 31
-41 8 0 -41 88 -76 135 -48 65 -57 80 -43 71 14 -8 180 159 188 189 3 11 4 51
2 87 l-3 67 -50 -30 -50 -30 53 48 c42 39 52 54 52 81 0 17 -3 32 -7 32 -5 0
-44 -32 -88 -69 -44 -38 -81 -68 -83 -66 -2 2 20 50 50 107 52 101 54 103 91
106 41 4 52 22 12 22 -31 0 -31 6 1 53 17 26 24 48 22 70 l-3 32 -54 -72z"/>
<path d="M4390 3514 c93 -19 231 -56 227 -60 -2 -2 -51 3 -108 11 -147 21
-149 18 -19 -20 137 -41 179 -51 130 -31 -24 10 -29 15 -15 15 35 1 188 -36
238 -58 26 -11 47 -18 47 -15 0 2 -21 14 -46 25 -26 11 -44 22 -42 25 3 3 28
14 54 24 l49 19 -55 -5 c-43 -5 -52 -3 -40 6 16 13 15 12 -52 -12 -21 -7 -47
-3 -125 22 -106 34 -256 70 -288 69 -11 -1 9 -7 45 -15z"/>
<path d="M3195 2900 l0 -60 80 1 c44 1 93 4 110 8 26 5 23 7 -32 19 -34 7 -75
10 -90 6 -19 -4 -24 -3 -14 4 11 8 11 11 0 16 -8 3 42 4 111 2 144 -5 175 -13
435 -116 179 -72 325 -121 353 -119 14 0 14 2 2 6 -8 3 -28 15 -43 25 -15 11
-33 21 -40 23 -7 2 -23 7 -37 11 l-25 8 25 7 25 7 -25 1 c-14 1 -56 12 -93 26
-38 13 -76 21 -85 18 -9 -4 -13 -2 -9 4 9 15 -49 34 -82 27 -21 -5 -23 -3 -11
6 12 9 8 10 -20 6 -19 -3 -29 -3 -22 0 9 4 -1 13 -28 25 -23 10 -47 16 -53 12
-6 -4 -7 -1 -2 7 6 10 4 12 -9 7 -22 -9 -101 13 -85 23 6 5 0 10 -16 14 -15 4
-30 5 -33 1 -3 -3 3 -5 13 -5 10 0 16 -2 13 -5 -3 -4 -18 -3 -33 1 -20 5 -24
9 -13 16 9 7 4 8 -15 3 -17 -3 -26 -2 -23 3 7 11 -73 22 -164 21 l-65 0 0 -59z"/>
<path d="M3548 2845 c-3 -3 6 -27 19 -54 32 -63 41 -154 21 -201 -9 -19 -46
-74 -83 -122 l-68 -86 -65 49 c-60 46 -142 90 -237 126 -29 11 -76 15 -165 14
-124 0 -190 11 -305 52 -22 8 -53 17 -70 20 -29 6 -29 6 5 -11 48 -23 87 -55
83 -67 -2 -6 6 -16 18 -23 14 -9 19 -10 14 -2 -5 9 -1 10 14 5 12 -4 28 -2 36
5 10 8 19 8 34 1 11 -6 26 -8 34 -5 8 3 32 -7 53 -21 24 -17 46 -24 59 -20 11
3 57 8 102 12 141 10 203 -14 324 -125 53 -49 130 -102 139 -97 4 2 25 5 48 6
23 2 42 8 42 13 1 28 20 -23 21 -54 0 -33 1 -34 12 -12 8 17 8 28 0 41 -6 10
-17 38 -23 61 l-12 43 -46 -46 c-47 -45 -47 -46 -69 -27 -13 10 -23 20 -23 23
0 2 27 37 60 78 68 82 120 178 120 219 0 28 -23 111 -47 173 -14 33 -31 46
-45 32z"/>
<path d="M5027 2779 c3 -11 2 -19 -3 -18 -11 3 -104 -40 -104 -47 0 -3 5 -2
10 1 6 3 10 4 10 1 0 -3 -39 -24 -87 -47 l-88 -42 -152 -5 c-117 -4 -177 -1
-262 13 -62 10 -108 22 -105 27 3 5 12 7 20 4 8 -3 14 0 14 5 0 7 -11 9 -26 6
-14 -2 -22 -1 -17 4 4 4 28 9 53 12 41 3 40 4 -15 6 -33 1 -84 6 -113 10 -59
8 -58 8 17 -43 52 -35 67 -40 105 -36 13 1 17 -3 13 -13 -3 -9 0 -18 8 -21 10
-3 12 0 8 11 -5 14 2 15 63 8 88 -9 110 -20 71 -34 -16 -6 -38 -11 -50 -12
-17 0 -13 -5 18 -20 48 -22 67 -23 120 -3 54 20 181 54 200 54 10 0 13 -5 9
-12 -5 -7 8 -2 27 10 18 13 66 39 104 59 103 52 224 123 231 135 4 6 -2 6 -14
-1 -14 -7 -29 -8 -45 -2 -22 9 -24 7 -20 -10z"/>
<path d="M3675 2772 c6 -4 11 -14 12 -22 1 -8 7 -37 14 -65 l13 -50 110 -35
c61 -19 140 -43 176 -55 56 -17 86 -20 218 -17 83 2 152 7 152 12 0 4 -14 13
-30 19 -22 7 -29 7 -24 -1 5 -7 -3 -9 -24 -6 -17 2 -29 1 -26 -4 3 -4 1 -8 -4
-8 -17 0 -30 24 -26 48 3 16 -3 26 -21 34 -14 6 -25 15 -25 19 0 5 -12 6 -27
3 -16 -3 -75 7 -137 24 -60 17 -116 28 -124 24 -11 -4 -13 -1 -7 8 6 10 4 12
-9 7 -20 -8 -176 29 -191 45 -7 7 1 8 25 4 l35 -6 -35 14 c-39 16 -61 20 -45
8z"/>
<path d="M5460 2617 c-84 -174 -233 -406 -293 -455 -14 -12 -11 -17 21 -46
l36 -34 27 20 c25 19 240 78 284 78 11 0 25 4 32 8 7 4 -8 7 -32 7 -23 0 -41
-3 -38 -7 7 -12 -40 -9 -57 3 -12 9 -11 10 7 6 13 -3 25 -1 28 3 3 4 29 14 57
21 29 7 49 14 43 16 -5 1 -67 -12 -138 -30 -109 -29 -125 -31 -115 -16 74 104
108 161 102 171 -4 6 -3 8 3 5 19 -12 107 198 97 231 -5 15 -4 15 6 2 9 -12
10 -8 4 19 -3 19 -12 47 -18 62 -12 28 -12 28 -56 -64z"/>
<path d="M1384 2213 c-16 -24 -34 -53 -40 -65 -11 -18 -13 -17 -30 21 -10 22
-19 40 -20 38 -1 -1 2 -27 7 -57 7 -45 6 -57 -9 -74 -16 -20 -16 -20 2 -6 18
14 19 13 13 -23 -5 -33 -4 -36 9 -22 21 20 27 19 15 -4 -6 -10 -7 -22 -3 -26
4 -5 2 -5 -5 -1 -6 3 -14 2 -18 -4 -3 -5 -1 -10 4 -10 6 0 11 -8 11 -18 0 -10
4 -22 9 -27 13 -15 24 -145 12 -145 -14 0 -24 62 -17 97 3 15 2 34 -3 42 -7
10 -17 4 -47 -28 -50 -56 -91 -79 -49 -28 60 72 76 97 65 97 -6 0 -8 6 -5 13
4 6 -5 -1 -19 -18 -14 -16 -26 -33 -26 -36 0 -4 -22 -21 -50 -39 -27 -18 -50
-34 -50 -37 0 -2 6 -1 13 3 6 4 1 -5 -13 -20 -31 -35 -61 -52 -58 -34 2 7 10
19 18 25 8 7 -11 2 -43 -12 -33 -14 -71 -27 -86 -29 -15 -1 -38 -10 -51 -19
-30 -20 -131 -47 -180 -48 l-35 -1 45 -14 c35 -12 58 -12 106 -4 33 5 72 10
86 10 l26 0 -16 -67 c-21 -89 -24 -504 -4 -510 6 -3 12 -13 12 -23 0 -10 27
-72 60 -137 43 -85 81 -143 136 -206 42 -49 78 -87 80 -85 2 3 27 -17 54 -43
89 -84 179 -137 375 -223 27 -12 21 -13 -55 -9 -47 2 -114 8 -150 12 -36 5
-66 8 -68 6 -1 -1 28 -42 66 -92 79 -102 171 -189 289 -274 l81 -59 199 1
c109 1 187 4 173 8 -27 8 64 18 240 27 52 2 117 6 144 9 51 5 121 -8 171 -32
24 -11 84 -13 305 -11 l275 3 -55 18 c-30 10 -89 21 -130 23 -57 4 -102 16
-186 50 -61 24 -183 62 -271 84 l-160 40 -57 -31 c-32 -17 -60 -38 -63 -45 -3
-8 -9 -14 -15 -14 -5 0 -6 5 -3 10 8 13 10 13 -50 -5 -48 -15 -241 -23 -253
-10 -3 3 37 5 89 5 107 0 197 19 269 55 49 25 65 45 35 45 -11 0 -3 17 25 59
22 32 40 63 40 69 0 7 13 18 28 26 46 24 134 108 128 122 -3 8 0 13 7 11 7 -1
11 6 11 15 -1 10 2 16 6 13 5 -3 12 5 16 17 3 13 15 35 25 50 11 14 19 39 19
55 l-1 28 -20 -27 c-68 -91 -319 -216 -489 -244 -131 -21 -155 -19 -209 20
-59 44 -178 167 -220 229 -17 26 -34 47 -37 47 -3 0 -2 -5 1 -10 3 -6 -2 -10
-12 -10 -9 0 -50 33 -90 74 -40 41 -73 73 -73 70 0 -12 75 -152 114 -213 55
-86 101 -138 138 -157 16 -8 26 -19 23 -24 -3 -5 0 -12 6 -16 8 -5 9 -3 4 6
-6 10 -4 12 9 7 10 -4 -5 18 -33 49 -75 82 -84 107 -15 45 32 -30 86 -72 119
-93 l60 -40 -55 7 c-30 3 -68 6 -85 6 -38 -1 -147 26 -202 50 -23 10 -44 27
-48 39 -4 12 -30 51 -57 88 -28 37 -48 57 -44 44 4 -12 5 -22 2 -22 -2 0 -12
24 -21 53 -15 48 -64 107 -88 107 -6 0 -8 -33 -5 -76 3 -42 1 -70 -3 -62 -5 7
-9 43 -9 81 0 61 -3 72 -36 120 -43 63 -48 68 -41 42 3 -11 9 -33 13 -50 6
-30 6 -30 -21 9 -26 36 -27 42 -19 105 5 36 8 75 8 86 -1 11 25 61 56 110 33
51 60 108 64 130 9 52 26 81 26 45 l0 -25 15 29 c8 15 15 37 15 47 0 11 4 19
8 19 11 0 35 51 28 58 -3 2 6 26 20 53 30 59 77 206 71 222 -2 7 -21 -24 -41
-68 -20 -44 -45 -91 -54 -105 l-17 -25 -5 38 -5 37 -51 -34 c-107 -72 -243
-218 -231 -248 3 -8 6 -6 6 5 1 9 5 17 9 17 10 0 9 -56 -2 -92 -4 -15 -4 -34
2 -43 7 -14 11 -6 16 31 3 27 15 76 26 109 l19 60 -5 -75 c-4 -62 -1 -86 19
-141 23 -66 23 -67 5 -114 -10 -25 -14 -43 -8 -40 5 3 10 2 10 -3 0 -14 -26
-33 -33 -25 -4 3 -4 -9 -1 -28 13 -77 16 -108 12 -125 -3 -16 -7 -14 -20 11
l-16 30 -7 -30 c-4 -16 -11 -43 -16 -58 -8 -26 -2 -36 62 -114 l71 -85 -43 23
c-24 12 -61 35 -81 51 -24 18 -38 25 -38 16 0 -7 -10 3 -21 22 -12 19 -36 53
-54 75 -51 64 -100 155 -149 277 -62 157 -66 192 -8 73 46 -93 151 -262 138
-223 -26 83 -55 189 -60 218 -5 34 9 -9 61 -182 21 -72 33 -93 69 -129 l44
-43 0 61 c0 50 -5 70 -25 99 -14 20 -34 65 -45 98 -11 35 -19 51 -19 37 -1
-41 -15 -13 -22 42 l-6 52 -8 -43 c-4 -24 -11 -40 -15 -35 -10 10 -36 142 -51
258 -6 49 -12 159 -13 244 l-1 155 80 39 c44 21 102 57 129 80 l49 41 -6 -51
c-3 -28 -1 -68 4 -88 8 -27 7 -47 -5 -83 -9 -26 -22 -90 -29 -142 -8 -52 -21
-110 -31 -129 -10 -18 -13 -30 -7 -27 6 4 11 0 11 -9 0 -8 30 16 68 56 37 40
93 89 124 109 103 67 116 82 158 188 41 102 55 161 20 84 -11 -23 -26 -53 -35
-65 -16 -22 -16 -22 -9 6 3 15 2 27 -2 27 -22 -1 -85 -28 -104 -45 -26 -23
-26 -11 1 26 15 22 17 27 5 23 -32 -12 -18 56 30 145 25 47 52 93 60 101 14
14 -45 -171 -67 -212 -5 -10 -7 -18 -5 -18 3 0 15 18 26 40 12 23 26 40 33 39
7 -1 17 -1 23 0 14 1 89 72 98 92 6 14 0 -121 -9 -176 -4 -24 -2 -21 9 10 8
22 15 58 16 80 1 32 3 36 10 20 13 -31 12 192 -1 258 -12 56 -22 70 -32 43 -6
-16 -100 -41 -122 -32 -8 3 -15 0 -15 -7 0 -17 -83 -177 -92 -177 -9 0 37 125
57 157 20 30 20 30 -20 49 -19 9 -35 22 -35 29 0 31 -28 20 -56 -22z m1055
-2098 c42 -9 123 -22 181 -29 l105 -13 -68 -2 c-49 -1 -66 -4 -61 -13 5 -8 -4
-9 -37 -2 -24 5 -141 9 -259 9 -183 0 -223 3 -268 19 -29 10 -51 20 -49 22 2
2 24 -3 48 -11 78 -28 158 -30 237 -6 39 12 74 26 77 31 8 13 4 13 94 -5z"/>
<path d="M4286 2119 c-20 -34 -58 -56 -115 -65 -23 -4 -44 -10 -46 -14 -6 -10
105 -38 218 -54 86 -13 94 -13 171 10 75 21 79 22 56 4 -14 -11 -30 -20 -36
-20 -6 0 -11 -7 -11 -15 0 -13 4 -12 21 2 53 44 75 67 71 73 -3 4 3 7 13 6 9
0 16 5 14 12 -1 8 1 11 6 8 4 -2 14 -1 22 5 10 6 -3 9 -41 9 -61 0 -218 30
-285 53 -41 15 -41 15 -58 -14z"/>
<path d="M3196 2089 c-13 -20 -14 -20 -19 -2 -3 10 -3 0 1 -22 9 -53 9 -110
-1 -165 -7 -42 -7 -44 9 -28 10 9 29 48 44 85 25 66 27 68 59 66 40 -1 52 -11
29 -24 -9 -5 -24 -16 -33 -25 -8 -8 -15 -12 -15 -7 0 4 -12 -10 -25 -32 -15
-24 -22 -48 -19 -59 4 -13 3 -16 -6 -11 -9 5 -11 4 -6 -3 10 -17 12 -16 33 17
l18 29 44 -40 c25 -24 49 -58 58 -83 17 -50 44 -78 70 -73 24 4 28 41 7 59
-14 12 -19 10 -35 -9 l-18 -23 -11 43 c-8 29 -26 55 -56 82 -27 25 -44 48 -44
62 0 25 15 40 25 24 3 -5 1 -10 -4 -10 -6 0 -11 -4 -11 -9 0 -5 11 -4 24 2 15
7 23 18 21 30 -2 9 0 15 5 12 4 -3 11 1 14 7 3 7 3 2 0 -12 -4 -18 -3 -21 4
-11 5 7 15 10 21 7 6 -4 11 -2 11 4 0 8 9 10 26 6 20 -5 27 -3 31 13 3 12 17
22 37 27 41 9 71 30 56 39 -6 4 -9 14 -5 24 5 14 4 14 -12 -2 -15 -15 -16 -19
-4 -26 17 -11 -46 -31 -97 -31 -53 0 -121 21 -136 41 -7 10 -16 16 -21 11 -4
-4 -5 2 -1 13 4 11 4 16 1 13 -4 -4 -18 -3 -31 2 -19 7 -26 5 -38 -11z"/>
<path d="M2376 1951 c-4 -35 -14 -77 -21 -93 -11 -28 -13 -29 -28 -13 -10 9
-17 21 -17 27 0 6 -2 9 -5 6 -3 -2 7 -39 21 -81 22 -65 29 -77 48 -77 12 0 27
-5 33 -11 19 -19 51 6 46 36 -6 28 -18 33 -27 10 -3 -8 -10 -15 -16 -15 -7 0
-9 21 -5 63 5 44 4 58 -4 47 -7 -11 -11 10 -13 75 l-3 90 -9 -64z"/>
<path d="M3790 1864 c13 -10 51 -28 85 -40 36 -13 64 -29 69 -41 11 -24 85
-39 236 -48 l95 -6 74 70 74 70 -39 -5 c-22 -3 -66 -9 -99 -14 -33 -5 -109
-12 -170 -15 -60 -4 -118 -9 -129 -12 -12 -3 -16 -1 -12 6 5 7 -3 11 -21 11
-27 0 -127 21 -168 36 -16 5 -15 3 5 -12z"/>
<path d="M3049 1777 c-6 -14 -16 -24 -21 -21 -4 3 -6 10 -3 15 4 5 4 9 2 9
-11 0 -57 -82 -52 -91 4 -5 1 -8 -7 -7 -8 2 -14 -8 -16 -24 -2 -16 -7 -28 -13
-28 -5 0 -15 -15 -23 -33 -22 -54 -29 -80 -19 -74 5 3 8 -7 7 -24 -1 -16 1
-31 6 -34 4 -2 8 -30 9 -61 0 -31 3 -60 7 -65 10 -17 -7 -48 -29 -52 -12 -2
-3 -5 21 -6 37 -1 42 1 42 22 0 40 -12 97 -20 92 -4 -2 -5 8 -2 23 5 24 6 24
13 7 6 -16 15 152 12 223 -1 7 2 11 5 8 3 -3 11 3 19 14 16 22 22 24 42 11 11
-7 10 -13 -4 -35 -9 -14 -21 -23 -26 -20 -5 3 -9 -3 -9 -13 0 -20 18 -43 34
-43 5 0 7 3 3 6 -3 3 3 16 14 27 11 12 19 28 18 37 -1 8 3 28 9 43 15 37 15
50 0 41 -7 -4 -5 2 5 13 9 11 17 30 16 44 0 13 -3 18 -6 10 -4 -11 -7 -11 -14
0 -5 9 -11 6 -20 -14z"/>
<path d="M2875 1654 l-90 -86 -101 4 c-67 3 -111 10 -134 21 l-34 17 20 -22
c12 -13 29 -44 38 -70 10 -26 22 -51 28 -54 6 -4 6 1 -1 14 -6 11 -11 22 -11
24 0 4 144 -9 172 -16 19 -4 54 31 120 119 43 59 93 135 86 135 -2 -1 -43 -39
-93 -86z"/>
<path d="M3652 1689 c-14 -5 -20 -13 -16 -20 4 -8 3 -9 -5 -5 -7 5 -24 -8 -44
-30 -17 -21 -42 -48 -54 -61 -13 -13 -23 -28 -23 -32 0 -5 -17 -30 -39 -57
-21 -27 -44 -60 -51 -74 -13 -25 -106 -172 -141 -221 l-18 -27 29 11 c23 9 30
18 30 39 0 32 31 65 71 73 22 5 34 17 48 49 21 45 141 142 267 216 36 21 59
40 52 42 -14 5 -70 -25 -88 -47 -11 -13 -16 -12 -37 5 -34 26 -53 26 -25 0 27
-26 28 -36 2 -50 -18 -10 -19 -8 -10 15 16 42 -6 28 -43 -27 -19 -29 -54 -68
-77 -87 -23 -18 -48 -48 -56 -66 -7 -18 -20 -35 -29 -38 -8 -4 -15 -4 -15 -2
0 3 26 50 58 106 57 102 174 239 204 239 7 0 31 9 52 20 39 19 39 20 -6 34 -7
2 -23 0 -36 -5z"/>
<path d="M4183 1648 c-46 -49 -58 -97 -57 -228 0 -137 23 -232 86 -353 77
-147 164 -220 305 -253 104 -24 241 -5 263 36 18 34 11 39 -27 23 -23 -9 -72
-16 -128 -17 -129 -2 -198 26 -286 113 -76 76 -119 156 -151 283 -26 105 -22
281 9 371 11 31 19 57 18 57 0 0 -15 -15 -32 -32z"/>
<path d="M1559 1398 c-14 -33 -4 -61 51 -146 50 -78 170 -204 186 -198 7 3 19
-3 26 -12 31 -41 71 -57 148 -57 92 0 163 31 194 86 l20 34 -27 -28 c-37 -38
-70 -48 -159 -48 -66 0 -85 4 -140 32 -112 57 -222 185 -268 314 l-18 50 -13
-27z"/>
<path d="M1510 1294 c-10 -17 -14 -49 -13 -88 9 -228 19 -284 58 -316 17 -14
18 -12 12 63 -4 42 -5 77 -3 77 2 0 18 -39 36 -86 17 -47 34 -83 37 -81 2 3 0
14 -6 25 -19 35 -12 37 22 5 17 -17 42 -34 55 -38 23 -7 23 -6 -8 47 -81 138
-143 278 -163 366 l-13 54 -14 -28z"/>
<path d="M3189 1170 c-1 -8 -1 -18 -1 -21 2 -13 -55 -59 -91 -74 -37 -15 -39
-15 -44 5 -3 11 -13 20 -22 20 -14 0 -14 -2 -1 -10 12 -8 9 -9 -10 -6 -15 2
-33 -4 -46 -16 -19 -17 -22 -17 -34 -3 -7 8 -21 15 -32 15 -10 0 -21 8 -24 18
-3 9 -8 24 -11 32 -4 13 -6 12 -17 -2 -7 -10 -19 -18 -26 -18 -10 0 -10 3 -1
14 10 12 8 13 -9 9 -11 -3 -23 -9 -25 -13 -3 -5 -19 -4 -37 1 l-31 9 29 -31
c40 -43 82 -71 108 -74 11 -1 25 -3 29 -4 5 0 5 -7 1 -13 -5 -8 -1 -8 10 1 12
10 20 11 24 4 4 -6 16 -12 27 -14 11 -2 25 -15 32 -29 7 -14 13 -18 13 -10 0
8 -5 22 -10 30 -6 10 -4 20 7 33 13 13 18 15 25 5 5 -9 8 -8 8 5 0 16 5 18 33
12 25 -5 29 -4 17 5 -12 9 -4 10 32 5 42 -5 48 -4 65 21 10 15 30 40 45 55 25
27 25 42 0 17 -9 -9 -14 -6 -21 13 -6 14 -10 18 -12 9z"/>
<path d="M2520 1092 c-136 -68 -88 -272 65 -272 145 0 194 204 65 270 -48 25
-84 25 -130 2z m118 -6 c15 -8 35 -22 44 -33 19 -21 33 -83 19 -83 -5 0 -12
-10 -14 -22 -3 -15 -5 -9 -6 14 -2 56 -36 90 -99 98 -28 3 -49 3 -46 -1 5 -9
-31 -31 -39 -23 -3 3 -8 0 -13 -7 -5 -8 -3 -10 6 -4 9 6 10 2 4 -16 -14 -38
-9 -87 10 -108 29 -32 71 -45 106 -32 18 6 28 6 25 1 -4 -6 -12 -10 -18 -10
-7 0 -23 -6 -37 -13 -21 -11 -31 -11 -58 0 -20 8 -30 18 -26 25 4 7 3 8 -4 4
-16 -10 -42 46 -42 91 0 95 105 162 188 119z"/>
<path d="M3615 1034 c-17 -12 -20 -27 -21 -87 -2 -103 5 -149 22 -143 9 3 14
-2 14 -13 0 -11 3 -27 7 -37 4 -12 3 -15 -5 -10 -7 4 -12 17 -12 28 0 12 -3
19 -6 15 -3 -3 -1 -30 5 -59 7 -30 14 -67 17 -83 3 -16 7 -32 10 -36 2 -4 -26
-32 -63 -62 -97 -77 -98 -79 -83 -130 19 -67 96 -208 155 -287 30 -41 55 -75
55 -76 0 -1 -9 0 -20 3 -11 3 -20 9 -20 14 0 5 -7 5 -17 2 -12 -5 -14 -3 -8 7
5 8 4 11 -3 6 -6 -3 -39 1 -74 9 -35 8 -87 15 -116 15 -38 0 -54 4 -59 16 -3
8 -23 22 -45 31 -21 8 -54 34 -74 57 -19 22 -32 33 -28 23 3 -10 32 -42 63
-72 l56 -55 -38 0 c-55 0 -95 25 -118 73 -10 23 -16 31 -12 17 3 -14 7 -33 8
-43 1 -10 13 -30 28 -44 23 -24 32 -26 94 -24 65 2 70 1 98 -30 26 -28 27 -30
7 -19 -13 6 -26 9 -29 7 -2 -3 17 -15 43 -26 26 -12 49 -20 50 -18 2 2 -10 20
-27 40 -20 25 -26 37 -16 37 20 0 162 -47 197 -65 16 -8 56 -15 90 -15 56 0
59 1 44 18 -74 82 -217 313 -248 400 l-15 42 41 32 c22 18 61 52 87 74 25 23
55 44 66 47 19 4 19 5 -1 6 -43 2 -76 137 -78 313 -1 65 -1 118 -1 118 0 -1
-9 -7 -20 -16z"/>
<path d="M1972 875 c2 -25 12 -35 56 -59 77 -41 194 -48 289 -17 93 30 102 36
83 55 -13 14 -23 12 -85 -10 -60 -22 -81 -25 -151 -21 -82 5 -129 21 -172 61
l-24 21 4 -30z"/>
<path d="M1095 621 c5 -51 13 -74 38 -105 45 -59 131 -151 123 -132 -18 47
-16 48 20 15 21 -20 78 -64 126 -98 49 -34 95 -75 103 -92 l16 -30 -28 7 c-51
12 -129 51 -168 85 -31 27 -36 29 -22 9 27 -39 20 -42 -25 -10 -61 45 -61 26
1 -33 30 -28 74 -83 97 -122 55 -89 81 -121 89 -113 4 4 -9 34 -29 68 -20 33
-36 63 -36 66 0 3 19 -8 43 -24 50 -34 98 -52 142 -52 22 0 40 -9 60 -30 17
-18 39 -30 54 -30 l25 0 -29 30 c-42 44 -24 47 31 6 26 -20 55 -36 66 -36 11
0 -20 29 -79 74 -108 81 -249 222 -303 304 -22 33 -44 54 -60 58 -14 3 -35 10
-48 15 -21 8 -23 7 -17 -13 5 -15 4 -19 -2 -13 -33 34 -123 149 -156 200 l-39
60 7 -64z"/>
</g>
</svg>
